<svg id="Laag_1" data-name="Laag 1" xmlns="http://www.w3.org/2000/svg" viewBox="0 0 713.12 474.74"><defs><style>.cls-1,.cls-2{fill:#d73534;}.cls-2{stroke:#d73534;stroke-miterlimit:10;stroke-width:1.8px;}</style></defs><title>Attitude_Rood_RGB</title><path class="cls-1" d="M334.86,118.56c5.88-1.72,9.67-6.45,8.47-10.56s-6.95-6-12.83-4.33-9.67,6.44-8.47,10.56S329,120.28,334.86,118.56Z"/><path class="cls-1" d="M449.22,132.26s19.47-1.43,26.68-.27c6.18,1,14.65,6.06,18.12,9.32,1.17,1.09,3.07,1.6,3.77.44,2.16-3.59,5.07-9.78,5.44-14.52,3.52-1.54,6-6.25,6-11.79,0-11.54-9.38-12-9.71-12-2.75-6.53-6.86-11.84-12-14.45a1.47,1.47,0,0,0-2,.81c-7.1,18.7-38.05,24.33-39.54,24.42Z"/><path class="cls-1" d="M639.61,177.39c-1-1.8-2.53-3.93-4.72-3.93a4.22,4.22,0,0,0-2.11.62c-2,1.19-3.72,2.42-5.39,3.61-4.19,3-7.82,5.57-13,5.57a21.07,21.07,0,0,1-8.24-1.92,1.79,1.79,0,0,1-.37-3.09L619.58,168c8.75-6.51,13.49-13.34,14.07-20.31.56-6.69-2.89-11.82-5.88-14.95-3.5-3.65-8.8-5.66-14.94-5.67-7.63,0-15.9,3.14-23.28,8.83C579.05,144,577.3,160.17,580.1,172a2.6,2.6,0,0,1-.88,2.62c-3,2.48-5.62,3.73-7.8,3.73-1.86,0-5.08-.93-5.7-7.19-.38-3.85-1.5-38.24-2.39-65.89-.48-14.75-.9-27.49-1-29.39-.05-.84-.18-3.07-7.84-3.07-.61,0-1.25,0-1.93,0-8,.37-10.1,3.61-10.06,5.28,0,1.25,1,30.31,1.92,57.85a1.8,1.8,0,0,1-1.8,1.86,1.69,1.69,0,0,1-.73-.16,25.6,25.6,0,0,0-10.47-2.28c-.63,0-1.26,0-1.89.08-7.94.6-15.15,4.93-20.29,12.19a40.82,40.82,0,0,0-6.93,26.66c.17,2.17.44,4.32.81,6.39a1.81,1.81,0,0,1-.55,1.64c-1,1-5.87,6.16-10.24,6.16-2.3,0-5.2-1.28-6-7.33-.48-3.63-.93-13-1.33-21.23-.25-5.26-.49-10.24-.68-12.32-.11-.8-1.13-3.69-7-3.69-.9,0-3.08.13-4.08.26-8.52,1.15-8.28,5.39-8.19,7,0,.08,0,.32,0,.73.88,13,1.51,25.79,1.83,37a10.47,10.47,0,0,1-3,7,6.86,6.86,0,0,1-4.88,2.29c-3.88,0-7-3.67-9.16-10.91-1.2-3.92-2.43-14.79-3.41-23.52-.5-4.39-.93-8.18-1.23-9.92-.14-.67-2.21-3-7.19-3a19.69,19.69,0,0,0-4.16.48c-8.39,1.8-7.84,6-7.63,7.6,0,.42.25,2,.55,4.37.93,7.39,2.87,22.78,4.17,32.64a1.79,1.79,0,0,1-.59,1.59c-.78.69-7.79,6.68-13.86,6.68-2.21,0-6.16-.87-7.71-6.74-.78-3-5-24.62-9.73-48.78-1.39-7.07-.37-7.59,5.5-9.08,4.89-1.24,22.8-4.14,37.67-6.36l-3.45-18.51c-15.91,2.71-35.27,6.09-43,7.63a2.19,2.19,0,0,1-.36,0,1.81,1.81,0,0,1-1-.31,1.76,1.76,0,0,1-.76-1.15c-1.56-8-3-15.58-3.35-17-.17-.75-.47-2.13-4.41-2.13a28.64,28.64,0,0,0-5.72.7c-7.86,1.63-9.39,5.17-9.09,6.8.09.53,1.2,6.26,3,15.38a2.48,2.48,0,0,1-1.86,2.9,563.48,563.48,0,0,0-65.13,20.13,1.77,1.77,0,0,1-.64.12,1.74,1.74,0,0,1-.77-.18,1.8,1.8,0,0,1-.94-1.05c-3.29-9.94-6.39-19.33-6.91-20.83-.2-.51-1.92-2-5.36-2a17.24,17.24,0,0,0-6.26,1.33c-8,3.14-6.76,7.2-6.29,8.74.17.57,2.51,7.76,6.42,19.75a2.48,2.48,0,0,1-1.39,3.06c-6.81,2.92-13.57,6-20.1,9.09a1.81,1.81,0,0,1-.78.18,1.9,1.9,0,0,1-.67-.13,1.76,1.76,0,0,1-1-1c-3.88-10.26-7.41-19.59-8-21.05-.17-.4-1.46-1.5-4.21-1.5a17.44,17.44,0,0,0-7,1.74c-8,3.56-6.5,7.83-6,9.23.2.58,3.07,8.31,7.51,20.22a2.54,2.54,0,0,1-1.18,3.12c-6.19,3.3-12.44,6.8-18.58,10.41a1.72,1.72,0,0,1-.9.25,1.82,1.82,0,0,1-1.53-.84c-15.5-24.45-35-48.67-53.45-66.45C147,98.66,127.11,87,111.55,86.32H111a8.68,8.68,0,0,0-6.8,3.07c-3.14,3.67-4.14,10.29-2.83,18.66.33,2.13,2.62,8.75,5.79,17.9,8.08,23.34,21.6,62.38,28.33,99.6,1.38,7.62,2.56,15.62,3.51,23.77a2.52,2.52,0,0,1-.77,2.11,450.49,450.49,0,0,0-34.43,36.11l-.08.07C87.58,304.34,76,328,75.05,351.47c-.87,21.59,14.24,43.93,35.68,49.33,17.87,4.49,37-5.26,44.84-21.79,2.65-5.62,5.91-18.79,7.83-31.75l0-.19a.71.71,0,0,0,0-.14A126.27,126.27,0,0,0,165,326.79v0a630.67,630.67,0,0,0,0-72,2.75,2.75,0,0,1,.95-2.25,473.37,473.37,0,0,1,45.83-34.62,1.77,1.77,0,0,1,1-.3,2.12,2.12,0,0,1,.44.05,1.83,1.83,0,0,1,1.15.9c16.85,31.38,30.29,75,31.39,78.61a5.92,5.92,0,0,0,5.8,3.58,18.76,18.76,0,0,0,7-1.74c8.2-3.46,7.86-7.62,6.66-10.85-2.17-5.81-4.47-12.55-6.9-19.69-6.24-18.31-14-41.06-24.36-61.79a2.48,2.48,0,0,1,.95-3.25c5.1-3,10.3-5.92,15.48-8.72a1.81,1.81,0,0,1,.85-.21,2,2,0,0,1,.64.11,1.8,1.8,0,0,1,1.05,1.06c11.66,31.24,24.36,65.2,25.47,67.9l.09.16a21.13,21.13,0,0,0,11,9.65,22.22,22.22,0,0,0,8,1.53,20.09,20.09,0,0,0,7.41-1.43c6.89-2.73,15.43-13.61,19.39-19.61a1.79,1.79,0,0,1,1.5-.81,1.72,1.72,0,0,1,.7.14A21.84,21.84,0,0,0,335,255a20.22,20.22,0,0,0,6.58-1.12c7.12-2.46,16.15-11.26,20.36-16.08a1.8,1.8,0,0,1,1.36-.61,1.76,1.76,0,0,1,.74.16,21.39,21.39,0,0,0,9.07,2.09,20.09,20.09,0,0,0,5.91-.9c9.18-2.8,17.34-12.58,17.42-12.67a1.79,1.79,0,0,1,2.5-.27,20.5,20.5,0,0,0,2.47,1.66,21.15,21.15,0,0,0,10.74,3,20,20,0,0,0,4.4-.49c9.08-2,21.36-11.76,22.73-12.87a1.83,1.83,0,0,1,1.13-.4,1.8,1.8,0,0,1,.95.27,21.07,21.07,0,0,0,11.18,3.34,20.51,20.51,0,0,0,3.47-.3c9.27-1.58,15.76-10.29,15.82-10.38a1.8,1.8,0,0,1,1.24-.72l.22,0a1.79,1.79,0,0,1,1.15.42l.09.08c.24.2.49.41.75.61a21,21,0,0,0,12.78,4.5c.64,0,1.29,0,1.93-.09,7.64-.71,18.82-7.52,23.67-11a1.87,1.87,0,0,1,1-.34,1.78,1.78,0,0,1,1,.33c5.1,3.61,11.67,5.45,19.52,5.49h.1c6.33,0,12.27-2.82,17.17-8.14a1.79,1.79,0,0,1,1.32-.58,1.76,1.76,0,0,1,1,.34,20.42,20.42,0,0,0,12.13,4l1.23,0c4.62-.27,12.08-4.87,21-12.95a1.79,1.79,0,0,1,1.21-.47h.11a1.84,1.84,0,0,1,1.26.62c4.67,5.42,8.91,8.37,17.92,8.41h.14c6.67,0,16.8-2.19,27.18-12.62.16-.15.29-.28.38-.38l.58-.54C640.19,184.31,642.26,182.38,639.61,177.39ZM141.78,322.19h0v.12c-.31,8.84-.8,16.05-1.23,21.12-.68,5.88-1.82,11.6-4.07,21.88-2.39,10.92-7.68,20.19-19.42,18.47-15.92-2.34-25.16-19.85-23.87-34.54,1.56-17.85,15.63-36.12,28.07-52.58,5.52-6.27,11.24-12.44,17.16-18.45a1.8,1.8,0,0,1,1.28-.53,1.72,1.72,0,0,1,.64.11,1.8,1.8,0,0,1,1.16,1.6C142.29,295.76,142.19,310.42,141.78,322.19Zm60-120.77c-13.1,8.66-25.85,18-37.91,27.71a1.83,1.83,0,0,1-1.13.4,2,2,0,0,1-.63-.11,1.8,1.8,0,0,1-1.14-1.36c-.56-3-1.08-5.77-1.61-8.37-8.7-43.21-20.87-87.18-21.64-89.28a1.81,1.81,0,0,1,1.69-2.44,1.27,1.27,0,0,1,.34,0c1.86.36,17.35,16.43,22.48,21.93,10.89,11.67,26.68,29.63,40,48.95a1.8,1.8,0,0,1,.29,1.37A1.82,1.82,0,0,1,201.76,201.42ZM312.63,236c-.77,1.21-7.71,11.86-14.18,11.86-1.88,0-4.5-.87-6.34-5-1.37-3.08-12.11-31.43-21.41-56a2.46,2.46,0,0,1,1.24-3.08c6.36-3.06,12.84-6,19.29-8.8a1.73,1.73,0,0,1,.71-.14,1.92,1.92,0,0,1,.74.15,1.81,1.81,0,0,1,1,1.09c8.41,25.73,15.58,47.57,19.16,58.4A1.83,1.83,0,0,1,312.63,236Zm76.49-30.9c-.72.81-7.22,8-13.18,8-2.31,0-5.44-1.06-7.21-6.1-1.19-3.39-4-14.75-6.47-24.78-1.66-6.74-3.23-13.12-3.86-15.17-.12-.34-1.69-2.22-5.73-2.22a17.81,17.81,0,0,0-5.85,1.12c-8.1,2.84-7,6.95-6.61,8.5.14.56.92,3.66,2,8.1,2.33,9.32,6.23,24.92,8.79,34.89a1.82,1.82,0,0,1-.32,1.56c-.76,1-7.53,9.37-13.67,9.37-2.13,0-5.06-1-6.89-5.64-.95-2.41-6.67-19.47-18-53.66a2.51,2.51,0,0,1,1.48-3.13c16-6,32.33-11.38,48.67-15.86,4.18-1.15,8.79-2.34,14.08-3.65a2,2,0,0,1,.43,0,1.88,1.88,0,0,1,1,.28,1.81,1.81,0,0,1,.79,1.17c4.66,23.82,8.66,44.14,11,55.74A1.81,1.81,0,0,1,389.12,205.07ZM534.3,187.92l-.55,0c-6.29,0-11.62-6.57-12.13-14.95-.52-8.63,4.32-16,10.78-16.36H533c6.3,0,11.63,6.56,12.14,14.94C545.61,180.19,540.77,187.53,534.3,187.92Zm60.88-28.71c-2.61-3.19,1.24-8.76,5.92-12.59,3.55-2.9,7.45-4.7,10.17-4.7a4.07,4.07,0,0,1,3.35,1.4c2.61,3.19-1.24,8.77-5.92,12.59-3.55,2.9-7.44,4.7-10.17,4.7A4.09,4.09,0,0,1,595.18,159.21Z"/><path class="cls-2" d="M364.7,270.93l-8.42,3.25,9.46,24.5-5.64,2.17-9.46-24.49-8.46,3.26-1.92-5,22.52-8.69Z"/><path class="cls-2" d="M408.5,250.53l-1.3,33.67-.58.19L392.74,269.6l-2.42,20.21-.54.18-21-26.36,6.1-2,11.3,14.51,2.19-19,.37-.12,13.07,14,.55-18.46Z"/><path class="cls-2" d="M432.39,276.69l-5.81,1.65L418,248l5.82-1.65Z"/><path class="cls-2" d="M449.4,272.06l-5.86,1.47-7.71-30.65,13.93-3.5a11.75,11.75,0,0,1,4.49-.31,10,10,0,0,1,3.89,1.34,10.37,10.37,0,0,1,3,2.81,11.63,11.63,0,0,1,1.84,4.05,11,11,0,0,1-.21,6.51,10,10,0,0,1-3.7,4.89q5.15,4.14,10.22,8.39l-7,1.75q-2.44-1.92-4.8-3.91c-1.58-1.32-3.16-2.68-4.75-4.06L447,262.3Zm-3.76-14.95,8.06-2a4.73,4.73,0,0,0,1.57-.73,4.43,4.43,0,0,0,1.28-1.34,5.41,5.41,0,0,0,.7-1.89,5.54,5.54,0,0,0-.13-2.37,8.6,8.6,0,0,0-.57-1.55,5.24,5.24,0,0,0-1.11-1.6,4.37,4.37,0,0,0-1.77-1.06,4.63,4.63,0,0,0-2.61,0l-8.06,2Z"/><path class="cls-2" d="M498.53,255.44l1.08,5.24-22.28,4.63-6.42-30.95,5.92-1.23,5.33,25.7Z"/><path class="cls-2" d="M532.46,247.32a15.32,15.32,0,0,1-2,3.79,16.54,16.54,0,0,1-2.88,3.14,16.17,16.17,0,0,1-3.65,2.32,15.81,15.81,0,0,1-4.27,1.31,15.63,15.63,0,0,1-6.47-.26,16.59,16.59,0,0,1-10-7.21,16.17,16.17,0,0,1-2-12.53,16.59,16.59,0,0,1,7.21-10,15.74,15.74,0,0,1,6.05-2.29,16,16,0,0,1,4.47-.12,16.2,16.2,0,0,1,4.19,1,16.38,16.38,0,0,1,3.73,2.06,15.81,15.81,0,0,1,3.06,2.94l-5.22,3.16a11.8,11.8,0,0,0-1.91-1.66,12,12,0,0,0-2.28-1.24,10.46,10.46,0,0,0-2.52-.69,8.54,8.54,0,0,0-2.62,0,9.37,9.37,0,0,0-3.84,1.52,10.55,10.55,0,0,0-2.84,2.85,11.33,11.33,0,0,0-1.62,3.74,10.66,10.66,0,0,0,1.31,8.07,11.47,11.47,0,0,0,2.73,3,10.73,10.73,0,0,0,3.59,1.8,9.4,9.4,0,0,0,4.13.22,8.54,8.54,0,0,0,2.49-.8,9.91,9.91,0,0,0,2.17-1.45,10.74,10.74,0,0,0,1.77-1.92,13,13,0,0,0,1.28-2.2Z"/><path class="cls-2" d="M564,246.15l.59,5.32L542,254l-3.5-31.42,6-.67,2.91,26.1Z"/><path class="cls-2" d="M585.52,250.66a15.66,15.66,0,0,1-5.62-.65,12.32,12.32,0,0,1-4.41-2.45,11.89,11.89,0,0,1-3-4,14.93,14.93,0,0,1-1.26-5.42l-1-18.8,6-.32,1,18.77a8.7,8.7,0,0,0,1,3.87,7.12,7.12,0,0,0,2.05,2.36,6.58,6.58,0,0,0,2.52,1.11,8.19,8.19,0,0,0,4.7-.25,6.59,6.59,0,0,0,2.4-1.37,7.31,7.31,0,0,0,1.78-2.56,8.55,8.55,0,0,0,.57-4l-1-18.77,6-.32,1,18.8a15,15,0,0,1-.66,5.53,11.45,11.45,0,0,1-2.49,4.32,12.22,12.22,0,0,1-4.13,2.9A15.7,15.7,0,0,1,585.52,250.66Z"/><path class="cls-2" d="M633,226.91a5.78,5.78,0,0,1-.43,2,7.44,7.44,0,0,1-1.1,2,6.11,6.11,0,0,1-1.65,1.51,4,4,0,0,1-2.08.62,6.23,6.23,0,0,1,2.29.72,7.07,7.07,0,0,1,2,1.61,8.71,8.71,0,0,1,1.44,2.32,6.64,6.64,0,0,1,.53,2.77,11.06,11.06,0,0,1-.87,4.35,7.55,7.55,0,0,1-2.17,2.84,8.25,8.25,0,0,1-3.17,1.51,14.82,14.82,0,0,1-3.83.39l-14.59-.3.66-31.6,13.9.29a16.23,16.23,0,0,1,3.57.44,7.17,7.17,0,0,1,2.91,1.4,6.62,6.62,0,0,1,1.93,2.73A11.11,11.11,0,0,1,633,226.91Zm-8.91,17.28a3.06,3.06,0,0,0,1.48-.34,3.94,3.94,0,0,0,1.23-1,5.18,5.18,0,0,0,.85-1.36A4.13,4.13,0,0,0,628,240a3.48,3.48,0,0,0-1.13-2.7,4.72,4.72,0,0,0-3.24-1.15l-7.9-.16-.16,8Zm-8.27-13.56,7.43.15a3.43,3.43,0,0,0,1.58-.31,3.58,3.58,0,0,0,1.14-.89,4.07,4.07,0,0,0,.72-1.27,4.39,4.39,0,0,0,.27-1.4,3.71,3.71,0,0,0-.23-1.36,4,4,0,0,0-.67-1.14,3.56,3.56,0,0,0-1-.8,2.62,2.62,0,0,0-1.22-.33l-7.86-.16Z"/></svg>